<?xml version="1.0" encoding="UTF-8" standalone="no"?>
<!DOCTYPE svg PUBLIC "-//W3C//DTD SVG 1.1//EN"
 "http://www.w3.org/Graphics/SVG/1.1/DTD/svg11.dtd">
<!-- Generated by graphviz version 2.43.0 (0)
 -->
<!-- Title: states Pages: 1 -->
<svg width="393pt" height="410pt"
 viewBox="0.00 0.00 393.00 410.00" xmlns="http://www.w3.org/2000/svg" xmlns:xlink="http://www.w3.org/1999/xlink">
<g id="graph0" class="graph" transform="scale(1 1) rotate(0) translate(4 406)">
<title>states</title>
<polygon fill="white" stroke="transparent" points="-4,4 -4,-406 389,-406 389,4 -4,4"/>
<!-- prefix -->
<g id="node1" class="node">
<title>prefix</title>
<path fill="none" stroke="black" d="M352,-402C352,-402 286,-402 286,-402 280,-402 274,-396 274,-390 274,-390 274,-376 274,-376 274,-370 280,-364 286,-364 286,-364 352,-364 352,-364 358,-364 364,-370 364,-376 364,-376 364,-390 364,-390 364,-396 358,-402 352,-402"/>
<text text-anchor="middle" x="319" y="-386.8" font-family="sans" font-size="14.00">prefix</text>
<text text-anchor="middle" x="319" y="-371.8" font-family="sans" font-size="14.00">hide(stims)</text>
</g>
<!-- fixate -->
<g id="node2" class="node">
<title>fixate</title>
<path fill="none" stroke="black" d="M235,-327C235,-327 151,-327 151,-327 145,-327 139,-321 139,-315 139,-315 139,-301 139,-301 139,-295 145,-289 151,-289 151,-289 235,-289 235,-289 241,-289 247,-295 247,-301 247,-301 247,-315 247,-315 247,-321 241,-327 235,-327"/>
<text text-anchor="middle" x="193" y="-311.8" font-family="sans" font-size="14.00">fixate</text>
<text text-anchor="middle" x="193" y="-296.8" font-family="sans" font-size="14.00">show(stims,2)</text>
</g>
<!-- prefix&#45;&gt;fixate -->
<g id="edge1" class="edge">
<title>prefix&#45;&gt;fixate</title>
<path fill="none" stroke="black" d="M287.85,-363.96C271.35,-354.39 250.88,-342.53 233.19,-332.28"/>
<polygon fill="black" stroke="black" points="234.63,-329.08 224.22,-327.09 231.12,-335.13 234.63,-329.08"/>
</g>
<!-- stimulus -->
<g id="node3" class="node">
<title>stimulus</title>
<path fill="none" stroke="black" d="M245.5,-223C245.5,-223 140.5,-223 140.5,-223 134.5,-223 128.5,-217 128.5,-211 128.5,-211 128.5,-197 128.5,-197 128.5,-191 134.5,-185 140.5,-185 140.5,-185 245.5,-185 245.5,-185 251.5,-185 257.5,-191 257.5,-197 257.5,-197 257.5,-211 257.5,-211 257.5,-217 251.5,-223 245.5,-223"/>
<text text-anchor="middle" x="193" y="-207.8" font-family="sans" font-size="14.00">stimulus</text>
<text text-anchor="middle" x="193" y="-192.8" font-family="sans" font-size="14.00">show(stims,[1 2])</text>
</g>
<!-- fixate&#45;&gt;stimulus -->
<g id="edge2" class="edge">
<title>fixate&#45;&gt;stimulus</title>
<path fill="none" stroke="black" d="M193,-288.76C193,-273.32 193,-250.91 193,-233.16"/>
<polygon fill="black" stroke="black" points="196.5,-233.08 193,-223.08 189.5,-233.08 196.5,-233.08"/>
<text text-anchor="middle" x="219.5" y="-259.8" font-family="Times,serif" font-size="14.00">inFixFcn:</text>
<text text-anchor="middle" x="219.5" y="-244.8" font-family="Times,serif" font-size="14.00">stimulus</text>
</g>
<!-- incorrect -->
<g id="node5" class="node">
<title>incorrect</title>
<path fill="none" stroke="black" d="M64,-167C64,-167 12,-167 12,-167 6,-167 0,-161 0,-155 0,-155 0,-143 0,-143 0,-137 6,-131 12,-131 12,-131 64,-131 64,-131 70,-131 76,-137 76,-143 76,-143 76,-155 76,-155 76,-161 70,-167 64,-167"/>
<text text-anchor="middle" x="38" y="-145.3" font-family="sans" font-size="14.00">incorrect</text>
</g>
<!-- fixate&#45;&gt;incorrect -->
<g id="edge3" class="edge">
<title>fixate&#45;&gt;incorrect</title>
<path fill="none" stroke="black" d="M160.33,-288.93C152.01,-283.65 143.35,-277.53 136,-271 103.47,-242.08 73.09,-201.67 55.03,-175.67"/>
<polygon fill="black" stroke="black" points="57.71,-173.39 49.17,-167.11 51.93,-177.34 57.71,-173.39"/>
<text text-anchor="middle" x="162.5" y="-259.8" font-family="Times,serif" font-size="14.00">inFixFcn:</text>
<text text-anchor="middle" x="162.5" y="-244.8" font-family="Times,serif" font-size="14.00">incorrect</text>
</g>
<!-- correct -->
<g id="node4" class="node">
<title>correct</title>
<path fill="none" stroke="black" d="M286.5,-113C286.5,-113 245.5,-113 245.5,-113 239.5,-113 233.5,-107 233.5,-101 233.5,-101 233.5,-87 233.5,-87 233.5,-81 239.5,-75 245.5,-75 245.5,-75 286.5,-75 286.5,-75 292.5,-75 298.5,-81 298.5,-87 298.5,-87 298.5,-101 298.5,-101 298.5,-107 292.5,-113 286.5,-113"/>
<text text-anchor="middle" x="266" y="-97.8" font-family="sans" font-size="14.00">correct</text>
<text text-anchor="middle" x="266" y="-82.8" font-family="sans" font-size="14.00">reward!</text>
</g>
<!-- stimulus&#45;&gt;correct -->
<g id="edge4" class="edge">
<title>stimulus&#45;&gt;correct</title>
<path fill="none" stroke="black" d="M194.85,-184.96C197.19,-169.43 202.43,-147.06 214,-131 217.21,-126.55 221.15,-122.46 225.41,-118.76"/>
<polygon fill="black" stroke="black" points="227.63,-121.47 233.34,-112.55 223.31,-115.96 227.63,-121.47"/>
<text text-anchor="middle" x="259.5" y="-152.8" font-family="Times,serif" font-size="14.00">maintainFixFcn:</text>
<text text-anchor="middle" x="259.5" y="-137.8" font-family="Times,serif" font-size="14.00">correct</text>
</g>
<!-- breakfix -->
<g id="node6" class="node">
<title>breakfix</title>
<path fill="none" stroke="black" d="M123.5,-112C123.5,-112 78.5,-112 78.5,-112 72.5,-112 66.5,-106 66.5,-100 66.5,-100 66.5,-88 66.5,-88 66.5,-82 72.5,-76 78.5,-76 78.5,-76 123.5,-76 123.5,-76 129.5,-76 135.5,-82 135.5,-88 135.5,-88 135.5,-100 135.5,-100 135.5,-106 129.5,-112 123.5,-112"/>
<text text-anchor="middle" x="101" y="-90.3" font-family="sans" font-size="14.00">breakfix</text>
</g>
<!-- stimulus&#45;&gt;breakfix -->
<g id="edge5" class="edge">
<title>stimulus&#45;&gt;breakfix</title>
<path fill="none" stroke="black" d="M128.28,-187.34C118.78,-182.33 110.15,-175.72 104,-167 94.95,-154.16 94.06,-136.6 95.49,-122.04"/>
<polygon fill="black" stroke="black" points="98.97,-122.46 96.87,-112.07 92.03,-121.5 98.97,-122.46"/>
<text text-anchor="middle" x="149.5" y="-152.8" font-family="Times,serif" font-size="14.00">maintainFixFcn:</text>
<text text-anchor="middle" x="149.5" y="-137.8" font-family="Times,serif" font-size="14.00">breakfix</text>
</g>
<!-- correct&#45;&gt;prefix -->
<g id="edge6" class="edge">
<title>correct&#45;&gt;prefix</title>
<path fill="none" stroke="black" d="M291.5,-113.2C296.87,-118.32 301.86,-124.33 305,-131 314.28,-150.69 317.6,-292.15 318.61,-353.61"/>
<polygon fill="black" stroke="black" points="315.11,-353.83 318.77,-363.78 322.11,-353.72 315.11,-353.83"/>
<text text-anchor="middle" x="342.5" y="-252.3" font-family="Times,serif" font-size="14.00">rewarded</text>
</g>
<!-- timeout -->
<g id="node7" class="node">
<title>timeout</title>
<path fill="none" stroke="black" d="M123.5,-38C123.5,-38 78.5,-38 78.5,-38 72.5,-38 66.5,-32 66.5,-26 66.5,-26 66.5,-12 66.5,-12 66.5,-6 72.5,0 78.5,0 78.5,0 123.5,0 123.5,0 129.5,0 135.5,-6 135.5,-12 135.5,-12 135.5,-26 135.5,-26 135.5,-32 129.5,-38 123.5,-38"/>
<text text-anchor="middle" x="101" y="-22.8" font-family="sans" font-size="14.00">timeout</text>
<text text-anchor="middle" x="101" y="-7.8" font-family="sans" font-size="14.00">tS.tOut</text>
</g>
<!-- incorrect&#45;&gt;timeout -->
<g id="edge8" class="edge">
<title>incorrect&#45;&gt;timeout</title>
<path fill="none" stroke="black" d="M40.39,-130.76C42.99,-115.49 48.02,-92.91 57,-75 62.07,-64.89 69.21,-54.91 76.27,-46.29"/>
<polygon fill="black" stroke="black" points="79.12,-48.35 82.95,-38.47 73.79,-43.8 79.12,-48.35"/>
</g>
<!-- breakfix&#45;&gt;timeout -->
<g id="edge7" class="edge">
<title>breakfix&#45;&gt;timeout</title>
<path fill="none" stroke="black" d="M101,-75.7C101,-67.49 101,-57.47 101,-48.2"/>
<polygon fill="black" stroke="black" points="104.5,-48.19 101,-38.19 97.5,-48.19 104.5,-48.19"/>
</g>
<!-- timeout&#45;&gt;prefix -->
<g id="edge9" class="edge">
<title>timeout&#45;&gt;prefix</title>
<path fill="none" stroke="black" d="M135.54,-21.63C211.23,-26.13 385,-42.03 385,-93 385,-309 385,-309 385,-309 385,-328.46 371.93,-345.06 357.43,-357.48"/>
<polygon fill="black" stroke="black" points="354.94,-354.99 349.3,-363.95 359.3,-360.47 354.94,-354.99"/>
</g>
</g>
</svg>
