<?xml version="1.0" encoding="utf-8"?>
<!-- Generator: Adobe Illustrator 27.0.0, SVG Export Plug-In . SVG Version: 6.00 Build 0)  -->
<svg version="1.1" id="Layer_1" xmlns="http://www.w3.org/2000/svg" xmlns:xlink="http://www.w3.org/1999/xlink" x="0px" y="0px"
	 viewBox="0 0 78.8 78.8" style="enable-background:new 0 0 78.8 78.8;" xml:space="preserve">
<style type="text/css">
	.st0{fill:#231F20;fill-opacity:0.85;}
</style>
<path class="st0" d="M0.18,39.4c0,21.46,17.77,39.22,39.18,39.22c21.46,0,39.26-17.77,39.26-39.22c0-21.42-17.77-39.22-39.22-39.22
	C17.98,0.18,0.18,17.98,0.18,39.4z M72.09,39.4c0,18.15-14.57,32.69-32.72,32.69c-18.15,0-32.61-14.54-32.61-32.69
	c0-18.15,14.5-32.69,32.65-32.69C57.55,6.72,72.09,21.25,72.09,39.4z M36.52,23.06v19.23l0.31,8.11l-3.85-4.61l-4.58-4.61
	c-0.54-0.5-1.23-0.85-2.04-0.85c-1.58,0-2.77,1.23-2.77,2.77c0,0.81,0.23,1.5,0.73,2L37.17,57.9c0.77,0.77,1.42,1.08,2.23,1.08
	c0.85,0,1.54-0.35,2.27-1.08l12.81-12.81c0.5-0.5,0.81-1.19,0.81-2c0-1.54-1.23-2.77-2.81-2.77c-0.85,0-1.54,0.31-2.04,0.85
	l-4.54,4.61l-3.92,4.65l0.31-8.15V23.06c0-1.69-1.19-2.88-2.88-2.88C37.75,20.17,36.52,21.37,36.52,23.06z"/>
</svg>
