<?xml version="1.0" encoding="UTF-8" standalone="no"?>
<!--Generator: Apple Native CoreSVG 175.5-->

<svg
   version="1.1"
   width="78.759781"
   height="96.875"
   id="svg130"
   sodipodi:docname="duplicate.svg"
   inkscape:version="1.2.2 (b0a8486541, 2022-12-01)"
   xmlns:inkscape="http://www.inkscape.org/namespaces/inkscape"
   xmlns:sodipodi="http://sodipodi.sourceforge.net/DTD/sodipodi-0.dtd"
   xmlns="http://www.w3.org/2000/svg"
   xmlns:svg="http://www.w3.org/2000/svg">
  <defs
     id="defs134" />
  <sodipodi:namedview
     id="namedview132"
     pagecolor="#505050"
     bordercolor="#eeeeee"
     borderopacity="1"
     inkscape:showpageshadow="0"
     inkscape:pageopacity="0"
     inkscape:pagecheckerboard="0"
     inkscape:deskcolor="#505050"
     showgrid="false"
     inkscape:zoom="3.1127273"
     inkscape:cx="57.023949"
     inkscape:cy="83.206776"
     inkscape:window-width="1440"
     inkscape:window-height="810"
     inkscape:window-x="45"
     inkscape:window-y="72"
     inkscape:window-maximized="0"
     inkscape:current-layer="Regular-S" />
  <!--glyph: "uni100242.medium", point size: 100.0, font version: "18.0d12e2", template writer version: "101"-->
  <style
     id="style2">.monochrome-0 {fill:#000000}
.monochrome-1 {fill:#000000}

.hierarchical-0:secondary {fill:#4D4D4D}
.hierarchical-1:primary {fill:#212121}

.SFSymbolsPreview212121 {fill:#212121;opacity:1.0}
.SFSymbolsPreview4D4D4D {fill:#4D4D4D;opacity:1.0}
</style>
  <g
     id="Regular-S"
     transform="translate(-9.76562,83.7402)">
    <path
       class="monochrome-0 hierarchical-0:secondary SFSymbolsPreview4D4D4D"
       d="m 75.6348,-6.29883 h 0.5859 c 8.1543,0 12.3047,-4.15037 12.3047,-12.45117 V -54.7852 H 67.8223 c -4.1016,0 -6.3965,-2.3437 -6.3965,-6.3964 V -83.7402 H 40.5762 c -8.0567,0 -12.2559,4.1504 -12.2559,12.1093 v 1.6114 h 5.4199 c 5.8106,0 10.6446,1.3672 15.2344,6.0058 l 21.2402,21.1914 c 4.5899,4.6387 5.42,9.668 5.42,15.2832 z M 68.7012,-60.0098 h 19.5312 c -0.2441,-1.3183 -1.123,-2.4902 -2.6367,-4.0039 L 70.6055,-79.3945 c -1.4649,-1.5137 -2.6856,-2.3926 -4.0039,-2.5879 l 0.0488,19.873 c 0,1.5137 0.5371,2.0996 2.0508,2.0996 z"
       id="path119"
       style="fill:#2c6d8a;fill-opacity:1" />
    <path
       class="monochrome-1 hierarchical-1:primary SFSymbolsPreview212121"
       d="M 22.0215,13.1348 H 57.666 c 8.2031,0 12.3047,-4.15042 12.3047,-12.451206 V -28.7109 H 43.0176 c -5.1758,0 -7.5684,-2.4414 -7.5684,-7.6172 V -64.3066 H 22.0215 c -8.2031,0 -12.25588,4.1504 -12.25588,12.4511 V 0.683594 C 9.76562,9.0332 13.8184,13.1348 22.0215,13.1348 Z m 20.8984,-47.5586 h 26.416 c -0.4394,-1.6602 -1.3671,-3.2227 -3.3203,-5.2246 L 46.3379,-59.8145 c -1.9531,-1.9531 -3.5645,-3.2226 -5.2246,-3.6621 v 27.2461 c 0,1.1719 0.6347,1.8067 1.8066,1.8067 z"
       id="path121"
       style="fill:#007aff;fill-opacity:1" />
  </g>
</svg>
