<?xml version="1.0" encoding="utf-8"?>
<!-- Generator: Adobe Illustrator 27.0.0, SVG Export Plug-In . SVG Version: 6.00 Build 0)  -->
<svg version="1.1" id="Layer_1" xmlns="http://www.w3.org/2000/svg" xmlns:xlink="http://www.w3.org/1999/xlink" x="0px" y="0px"
	 viewBox="0 0 78.8 78.8" style="enable-background:new 0 0 78.8 78.8;" xml:space="preserve">
<style type="text/css">
	.st0{fill:#333333;fill-opacity:0.85;}
</style>
<path class="st0" d="M52.9,44.3H25c-1.3,0-2.3,1-2.3,2.2c0,1.3,1,2.3,2.3,2.3h27.9c1.3,0,2.2-1,2.2-2.3
	C55.2,45.3,54.2,44.3,52.9,44.3z M52.9,57.2H25c-1.3,0-2.3,1-2.3,2.3c0,1.2,1,2.2,2.3,2.2h27.9c1.3,0,2.2-1,2.2-2.2
	C55.2,58.2,54.2,57.2,52.9,57.2z M19.9,78.8h39c7.6,0,11.4-3.9,11.4-11.5V33.9c0-4.7-0.6-6.8-3.5-9.8L46.6,3.5
	C43.8,0.6,41.5,0,37.3,0H19.9C12.3,0,8.5,3.9,8.5,11.5v55.8C8.5,75,12.3,78.8,19.9,78.8z M20.1,72.9c-3.8,0-5.7-2-5.7-5.7V11.7
	c0-3.6,1.9-5.7,5.8-5.7h16.4v21.4c0,4.6,2.3,6.9,6.9,6.9h20.9v33c0,3.7-1.9,5.7-5.8,5.7H20.1z M44.1,28.6c-1.5,0-2-0.6-2-2.1V7.1
	l21.2,21.6H44.1z"/>
</svg>
