<?xml version="1.0" encoding="UTF-8" standalone="no"?>
<svg
   version="1.1"
   viewBox="0 0 89298.171 89386.053"
   id="svg2"
   sodipodi:docname="link.circle.svg"
   inkscape:version="1.4 (e7c3feb1, 2024-10-09)"
   width="89298.172"
   height="89386.055"
   xmlns:inkscape="http://www.inkscape.org/namespaces/inkscape"
   xmlns:sodipodi="http://sodipodi.sourceforge.net/DTD/sodipodi-0.dtd"
   xmlns="http://www.w3.org/2000/svg"
   xmlns:svg="http://www.w3.org/2000/svg">
  <defs
     id="defs2" />
  <sodipodi:namedview
     id="namedview2"
     pagecolor="#ffffff"
     bordercolor="#000000"
     borderopacity="0.25"
     inkscape:showpageshadow="2"
     inkscape:pageopacity="0.0"
     inkscape:pagecheckerboard="0"
     inkscape:deskcolor="#d1d1d1"
     inkscape:export-bgcolor="#ffffff49"
     inkscape:zoom="1.327974"
     inkscape:cx="171.69011"
     inkscape:cy="142.69857"
     inkscape:current-layer="svg2">
    <inkscape:page
       x="0"
       y="0"
       width="89298.172"
       height="89386.055"
       id="page2"
       margin="0"
       bleed="0" />
  </sodipodi:namedview>
  <rect
     height="298.97501"
     opacity="0"
     width="298.828"
     x="0"
     y="0"
     id="rect1" />
  <path
     d="m 149.414,298.828 c 82.471,0 149.414,-66.943 149.414,-149.414 C 298.828,66.9434 231.885,0 149.414,0 66.9434,0 0,66.9434 0,149.414 0,231.885 66.9434,298.828 149.414,298.828 Z m 0,-24.902 c -68.8476,0 -124.5117,-55.664 -124.5117,-124.512 0,-68.8476 55.6641,-124.5117 124.5117,-124.5117 68.848,0 124.512,55.6641 124.512,124.5117 0,68.848 -55.664,124.512 -124.512,124.512 z"
     fill="#ffffff"
     fill-opacity="0.85"
     id="path1"
     style="fill:#5a5a5a;fill-opacity:1" />
  <path
     d="m 50.9766,134.473 c 0,24.17 17.1386,41.308 41.1621,41.308 h 4.9804 c -0.8789,-3.955 -1.3183,-11.133 -0.7324,-15.82 h -3.2226 c -15.0879,0 -25.4883,-10.254 -25.4883,-25.488 0,-15.088 10.4004,-25.635 25.4883,-25.635 h 58.8869 c 15.088,0 25.488,10.547 25.488,25.635 0,15.234 -10.254,25.488 -25.488,25.488 h -21.973 c -1.611,4.394 -1.025,11.572 3.369,15.82 h 19.483 c 24.023,0 41.162,-17.138 41.162,-41.308 0,-24.17 -17.139,-41.4554 -41.162,-41.4554 H 92.1387 c -24.0235,0 -41.1621,17.2854 -41.1621,41.4554 z m 53.4664,31.054 c 0,24.17 17.139,41.455 41.309,41.455 h 60.644 c 24.024,0 41.309,-17.285 41.309,-41.455 0,-24.17 -17.139,-41.308 -41.309,-41.308 h -4.98 c 0.732,4.248 1.611,8.935 0.732,15.82 h 3.37 c 15.087,0 25.488,10.4 25.488,25.488 0,15.088 -10.401,25.635 -25.488,25.635 h -59.034 c -15.088,0 -25.488,-10.547 -25.488,-25.635 0,-15.088 10.4,-25.488 25.488,-25.488 h 21.827 c 1.904,-4.248 1.318,-11.865 -3.223,-15.82 h -19.336 c -24.17,0 -41.309,17.138 -41.309,41.308 z"
     fill="#ffffff"
     fill-opacity="0.85"
     id="path2"
     style="fill:#595959;fill-opacity:1" />
</svg>
