<?xml version="1.0" encoding="UTF-8" standalone="no"?>
<svg
   width="299"
   height="299"
   version="1.1"
   viewBox="0 0 299 299"
   id="svg4"
   sodipodi:docname="link.circle.off.svg"
   inkscape:version="1.4.2 (ebf0e940, 2025-05-08)"
   xmlns:inkscape="http://www.inkscape.org/namespaces/inkscape"
   xmlns:sodipodi="http://sodipodi.sourceforge.net/DTD/sodipodi-0.dtd"
   xmlns="http://www.w3.org/2000/svg"
   xmlns:svg="http://www.w3.org/2000/svg">
  <defs
     id="defs4">
    <clipPath
       clipPathUnits="userSpaceOnUse"
       id="clipPath6">
      <g
         inkscape:label="Clip"
         id="use6">
        <path
           d="m 149.41,298.83 c 82.471,0 149.41,-66.943 149.41,-149.41 C 298.82,66.949 231.877,0.01 149.41,0.01 66.939,0.01 0,66.953 0,149.42 0,231.891 66.943,298.83 149.41,298.83 Z m 0,-24.902 c -68.848,0 -124.51,-55.664 -124.51,-124.51 0,-68.848 55.664,-124.51 124.51,-124.51 68.848,0 124.51,55.664 124.51,124.51 0,68.848 -55.664,124.51 -124.51,124.51 z"
           fill="#5a5a5a"
           fill-opacity="0.79724"
           id="path6" />
        <path
           x="341.41867"
           y="102.42561"
           width="337"
           height="47.900002"
           d="M 49.364867,16.178967 277.75329,244.56739 a 6.5908,6.5908 0 0 1 0,9.3208 l -23.67747,23.67747 a 7.8243,7.8243 0 0 1 -11.06524,0 L 15.081785,49.636856 a 6.8319,6.8319 0 0 1 -7.1e-5,-9.661836 L 38.873736,16.182998 a 7.421,7.421 0 0 1 10.494879,0 z"
           fill="#ffffff"
           id="path7" />
      </g>
    </clipPath>
  </defs>
  <sodipodi:namedview
     id="namedview4"
     pagecolor="#ffffff"
     bordercolor="#000000"
     borderopacity="0.25"
     inkscape:showpageshadow="2"
     inkscape:pageopacity="0.0"
     inkscape:pagecheckerboard="0"
     inkscape:deskcolor="#d1d1d1"
     showgrid="false"
     inkscape:zoom="1.4246826"
     inkscape:cx="149.85794"
     inkscape:cy="102.12801"
     inkscape:current-layer="svg4" />
  <path
     id="path2"
     d="M 126.20117 93.015625 L 142.02148 108.83594 L 152.05078 108.83594 C 167.13878 108.83594 177.53906 119.3827 177.53906 134.4707 C 177.53906 137.57575 177.11396 140.47253 176.30664 143.11914 L 188.88477 155.69727 C 192.23511 149.62435 194.0918 142.42923 194.0918 134.4707 C 194.0918 110.3007 176.95269 93.015625 152.92969 93.015625 L 126.20117 93.015625 z M 66.591797 101.14648 C 56.870879 108.4875 50.976562 120.29591 50.976562 134.4707 C 50.976562 158.6407 68.115672 175.77734 92.138672 175.77734 L 97.119141 175.77734 C 96.240241 171.82234 95.800819 164.64403 96.386719 159.95703 L 93.164062 159.95703 C 78.076063 159.95703 67.675781 149.7047 67.675781 134.4707 C 67.675781 125.05657 71.725368 117.40972 78.435547 112.99023 L 66.591797 101.14648 z M 157.40234 124.2168 L 169.27148 136.08594 C 169.62706 132.01295 168.42719 127.12517 165.08789 124.2168 L 157.40234 124.2168 z M 201.41602 124.2168 C 202.14802 128.4648 203.02744 133.15016 202.14844 140.03516 L 205.51758 140.03516 C 220.60458 140.03516 231.00586 150.43544 231.00586 165.52344 C 231.00586 174.95347 226.94345 182.60936 220.21289 187.02539 L 232.01758 198.83203 C 241.76826 191.48992 247.70508 179.6884 247.70508 165.52344 C 247.70508 141.35344 230.56648 124.2168 206.39648 124.2168 L 201.41602 124.2168 z M 109.6875 144.24219 C 106.31282 150.32657 104.44336 157.54101 104.44336 165.52344 C 104.44336 189.69344 121.58195 206.97852 145.75195 206.97852 L 172.42383 206.97852 L 156.60352 191.1582 L 146.48438 191.1582 C 131.39638 191.1582 120.99609 180.61144 120.99609 165.52344 C 120.99609 162.4089 121.43932 159.49485 122.27539 156.83008 L 109.6875 144.24219 z M 129.29492 163.84961 C 129.02899 167.88643 130.19593 172.63404 133.44727 175.77734 L 141.22266 175.77734 L 129.29492 163.84961 z "
     style="fill:#999999" />
  <path
     id="path1"
     d="M 149.41016 0.009765625 C 116.63925 0.009765625 86.320272 10.580078 61.679688 28.494141 L 79.507812 46.322266 C 99.426688 32.802889 123.48348 24.908203 149.41016 24.908203 C 218.25816 24.908203 273.91992 80.571969 273.91992 149.41797 C 273.91992 175.34503 266.02514 199.40166 252.50586 219.32031 L 270.33594 237.15039 C 288.25022 212.50932 298.82031 182.18997 298.82031 149.41992 C 298.82031 66.948922 231.87716 0.009765625 149.41016 0.009765625 z M 27.917969 62.472656 C 10.347089 86.971636 7.4497184e-15 116.99633 0 149.41992 C 0 231.89092 66.943156 298.83008 149.41016 298.83008 C 181.83399 298.83008 211.85721 288.48218 236.35547 270.91211 L 218.50391 253.05859 L 218.50195 253.05859 C 198.74241 266.2447 174.98628 273.92773 149.41016 273.92773 C 80.562156 273.92773 24.900391 218.26397 24.900391 149.41797 C 24.900391 123.84086 32.582946 100.08382 45.769531 80.324219 L 27.917969 62.472656 z "
     style="fill:#999999" />
  <path
     x="341.41867"
     y="102.42561"
     width="335"
     height="26.9"
     d="M 45.657956,27.300083 272.63216,254.27429 a 6.5908,6.5908 0 0 1 0,9.3208 l -8.82823,8.82823 a 7.8243,7.8243 0 0 1 -11.06523,0 L 26.224116,45.908729 a 6.8319,6.8319 0 0 1 0,-9.661907 l 8.942779,-8.942779 a 7.421,7.421 0 0 1 10.494879,0 z"
     fill="#5a5a5a"
     id="path4"
     style="fill:#999999" />
</svg>
