<?xml version="1.0" encoding="UTF-8"?>
<svg width="299" height="299" version="1.1" viewBox="0 0 299 299" xmlns="http://www.w3.org/2000/svg">
 <rect width="298.83" height="298.98" opacity="0"/>
 <path d="m149.41 298.83c82.471 0 149.41-66.943 149.41-149.41 0-82.471-66.943-149.41-149.41-149.41-82.471 0-149.41 66.943-149.41 149.41 0 82.471 66.943 149.41 149.41 149.41zm0-24.902c-68.848 0-124.51-55.664-124.51-124.51 0-68.848 55.664-124.51 124.51-124.51 68.848 0 124.51 55.664 124.51 124.51 0 68.848-55.664 124.51-124.51 124.51z" fill="#5a5a5a"/>
 <path d="m50.977 134.47c0 24.17 17.139 41.308 41.162 41.308h4.9804c-0.8789-3.955-1.3183-11.133-0.7324-15.82h-3.2226c-15.088 0-25.488-10.254-25.488-25.488 0-15.088 10.4-25.635 25.488-25.635h58.887c15.088 0 25.488 10.547 25.488 25.635 0 15.234-10.254 25.488-25.488 25.488h-21.973c-1.611 4.394-1.025 11.572 3.369 15.82h19.483c24.023 0 41.162-17.138 41.162-41.308s-17.139-41.455-41.162-41.455h-60.791c-24.024 0-41.162 17.285-41.162 41.455zm53.466 31.054c0 24.17 17.139 41.455 41.309 41.455h60.644c24.024 0 41.309-17.285 41.309-41.455s-17.139-41.308-41.309-41.308h-4.98c0.732 4.248 1.611 8.935 0.732 15.82h3.37c15.087 0 25.488 10.4 25.488 25.488s-10.401 25.635-25.488 25.635h-59.034c-15.088 0-25.488-10.547-25.488-25.635s10.4-25.488 25.488-25.488h21.827c1.904-4.248 1.318-11.865-3.223-15.82h-19.336c-24.17 0-41.309 17.138-41.309 41.308z" fill="#595959"/>
</svg>
