<?xml version="1.0" encoding="UTF-8" standalone="no"?>
<svg
   width="299"
   height="299"
   version="1.1"
   viewBox="0 0 299 299"
   id="svg2"
   sodipodi:docname="link.circle.svg"
   inkscape:version="1.4.2 (ebf0e940, 2025-05-08)"
   xmlns:inkscape="http://www.inkscape.org/namespaces/inkscape"
   xmlns:sodipodi="http://sodipodi.sourceforge.net/DTD/sodipodi-0.dtd"
   xmlns="http://www.w3.org/2000/svg"
   xmlns:svg="http://www.w3.org/2000/svg">
  <defs
     id="defs2" />
  <sodipodi:namedview
     id="namedview2"
     pagecolor="#ffffff"
     bordercolor="#000000"
     borderopacity="0.25"
     inkscape:showpageshadow="2"
     inkscape:pageopacity="0.0"
     inkscape:pagecheckerboard="0"
     inkscape:deskcolor="#d1d1d1"
     inkscape:zoom="1.0655994"
     inkscape:cx="169.85745"
     inkscape:cy="183.46482"
     inkscape:current-layer="svg2" />
  <rect
     width="298.83"
     height="298.98"
     opacity="0"
     id="rect1" />
  <path
     d="m149.41 298.83c82.471 0 149.41-66.943 149.41-149.41 0-82.471-66.943-149.41-149.41-149.41-82.471 0-149.41 66.943-149.41 149.41 0 82.471 66.943 149.41 149.41 149.41zm0-24.902c-68.848 0-124.51-55.664-124.51-124.51 0-68.848 55.664-124.51 124.51-124.51 68.848 0 124.51 55.664 124.51 124.51 0 68.848-55.664 124.51-124.51 124.51z"
     fill="#5a5a5a"
     id="path1"
     style="fill:#999999" />
  <path
     d="m50.977 134.47c0 24.17 17.139 41.308 41.162 41.308h4.9804c-0.8789-3.955-1.3183-11.133-0.7324-15.82h-3.2226c-15.088 0-25.488-10.254-25.488-25.488 0-15.088 10.4-25.635 25.488-25.635h58.887c15.088 0 25.488 10.547 25.488 25.635 0 15.234-10.254 25.488-25.488 25.488h-21.973c-1.611 4.394-1.025 11.572 3.369 15.82h19.483c24.023 0 41.162-17.138 41.162-41.308s-17.139-41.455-41.162-41.455h-60.791c-24.024 0-41.162 17.285-41.162 41.455zm53.466 31.054c0 24.17 17.139 41.455 41.309 41.455h60.644c24.024 0 41.309-17.285 41.309-41.455s-17.139-41.308-41.309-41.308h-4.98c0.732 4.248 1.611 8.935 0.732 15.82h3.37c15.087 0 25.488 10.4 25.488 25.488s-10.401 25.635-25.488 25.635h-59.034c-15.088 0-25.488-10.547-25.488-25.635s10.4-25.488 25.488-25.488h21.827c1.904-4.248 1.318-11.865-3.223-15.82h-19.336c-24.17 0-41.309 17.138-41.309 41.308z"
     fill="#595959"
     id="path2"
     style="fill:#999999" />
</svg>
