<?xml version="1.0" encoding="utf-8"?>
<!-- Generator: Adobe Illustrator 27.0.0, SVG Export Plug-In . SVG Version: 6.00 Build 0)  -->
<svg version="1.1" id="Layer_1" xmlns="http://www.w3.org/2000/svg" xmlns:xlink="http://www.w3.org/1999/xlink" x="0px" y="0px"
	 viewBox="0 0 78.8 78.8" style="enable-background:new 0 0 78.8 78.8;" xml:space="preserve">
<style type="text/css">
	.st0{fill-opacity:0;}
	.st1{fill:#333333;fill-opacity:0.85;}
</style>
<g>
	<rect x="-184" y="-61.36" class="st0" width="164.26" height="209.47"/>
	<path class="st1" d="M19.9,78.8h39.03c7.61,0,11.39-3.86,11.39-11.5V33.92c0-4.74-0.55-6.8-3.49-9.81L46.58,3.49
		C43.79,0.62,41.47,0,37.36,0H19.9C12.33,0,8.5,3.9,8.5,11.54V67.3C8.5,74.98,12.29,78.8,19.9,78.8z M20.15,72.88
		c-3.79,0-5.73-2.02-5.73-5.7V11.65c0-3.64,1.95-5.73,5.77-5.73h16.36v21.35c0,4.63,2.32,6.91,6.91,6.91h20.95v33.01
		c0,3.68-1.95,5.7-5.77,5.7H20.15z M44.12,28.63c-1.47,0-2.02-0.59-2.02-2.06V7.06l21.17,21.57H44.12z"/>
</g>
</svg>
