<?xml version="1.0" encoding="utf-8"?>
<!-- Generator: Adobe Illustrator 27.0.0, SVG Export Plug-In . SVG Version: 6.00 Build 0)  -->
<svg version="1.1" id="Layer_1" xmlns="http://www.w3.org/2000/svg" xmlns:xlink="http://www.w3.org/1999/xlink" x="0px" y="0px"
	 viewBox="0 0 78.8 78.8" style="enable-background:new 0 0 78.8 78.8;" xml:space="preserve">
<style type="text/css">
	.st0{fill:#333333;fill-opacity:0.85;}
</style>
<g>
	<path class="st0" d="M39.4,70.9c17.2,0,31.5-14.3,31.5-31.5C70.8,22.2,56.5,8,39.3,8C22.1,8,7.9,22.2,7.9,39.4
		C7.9,56.6,22.2,70.9,39.4,70.9z M38.7,46.1c-1.6,0-2.6-0.9-2.6-2.5c0-0.1,0-0.3,0-0.4c0-3.1,1.7-4.8,4-6.4c2.8-1.9,4.1-3,4.1-5.2
		c0-2.4-1.9-4-4.8-4c-2.1,0-3.8,1-4.9,2.9L34,31.2c-0.6,0.7-1.3,1.3-2.4,1.3c-1,0-2.2-0.8-2.2-2.2c0-0.6,0.1-1.1,0.3-1.6
		c0.9-2.9,4.4-5.5,9.9-5.5c5.4,0,10.2,2.8,10.2,8.1c0,3.8-2.2,5.7-5.3,7.7c-2.2,1.5-3.2,2.6-3.2,4.4c0,0.1,0,0.2,0,0.4
		C41.3,45,40.3,46.1,38.7,46.1z M38.6,55.5c-1.9,0-3.5-1.5-3.5-3.3c0-1.8,1.6-3.3,3.5-3.3c1.9,0,3.5,1.5,3.5,3.3
		C42.1,54.1,40.5,55.5,38.6,55.5z"/>
</g>
</svg>
