<?xml version="1.0" encoding="utf-8"?>
<!-- Generator: Adobe Illustrator 27.0.0, SVG Export Plug-In . SVG Version: 6.00 Build 0)  -->
<svg version="1.1" id="Layer_1" xmlns="http://www.w3.org/2000/svg" xmlns:xlink="http://www.w3.org/1999/xlink" x="0px" y="0px"
	 viewBox="0 0 78.8 78.8" style="enable-background:new 0 0 78.8 78.8;" xml:space="preserve">
<style type="text/css">
	.st0{fill-opacity:0;}
	.st1{fill:#333333;fill-opacity:0.85;}
</style>
<rect x="-306" y="-99.5" class="st0" width="238.8" height="199.3"/>
<path class="st1" d="M0.7,39.5c-1.3,1.8-0.7,3.3,1.6,3.3h4.4c1.7,16.4,15.9,29.4,32.6,29.4c9.8,0,18.7-4.5,24.7-11.4
	c1.2-1.4,1-3.1-0.2-4c-1.3-0.9-2.8-0.6-3.8,0.6c-5,5.8-12.4,9.4-20.7,9.4c-14,0-25.4-10.4-27.1-23.9h4.8c2.3,0,2.9-1.6,1.6-3.3
	l-7.2-10.3c-1-1.5-2.6-1.5-3.6,0L0.7,39.5z M14.7,18c-1.2,1.4-1.1,3.1,0.2,4c1.3,0.9,2.8,0.6,3.8-0.6c5-5.7,12.4-9.4,20.6-9.4
	c14,0,25.4,10.4,27.1,23.9h-4.8c-2.3,0-2.9,1.5-1.6,3.3l7.2,10.3c1,1.5,2.6,1.5,3.6,0l7.2-10.2c1.3-1.8,0.7-3.3-1.6-3.3H72
	C70.2,19.6,56.2,6.6,39.4,6.6C29.6,6.6,20.8,11,14.7,18z"/>
</svg>
