<?xml version="1.0" encoding="utf-8"?>
<!-- Generator: Adobe Illustrator 27.0.0, SVG Export Plug-In . SVG Version: 6.00 Build 0)  -->
<svg version="1.1"
	 id="svg21" xmlns:inkscape="http://www.inkscape.org/namespaces/inkscape" xmlns:svg="http://www.w3.org/2000/svg" xmlns:sodipodi="http://sodipodi.sourceforge.net/DTD/sodipodi-0.dtd" xmlns:rdf="http://www.w3.org/1999/02/22-rdf-syntax-ns#" xmlns:cc="http://creativecommons.org/ns#" xmlns:dc="http://purl.org/dc/elements/1.1/"
	 xmlns="http://www.w3.org/2000/svg" xmlns:xlink="http://www.w3.org/1999/xlink" x="0px" y="0px" viewBox="0 0 24 24"
	 style="enable-background:new 0 0 24 24;" xml:space="preserve">
<style type="text/css">
	.st0{fill:#FFFFFF;}
	.st1{fill:#808080;}
	.st2{fill:#1A1A1A;}
	.st3{fill:#999999;}
	.st4{fill:#E6E6E6;}
	.st5{fill:#B3B3B3;}
	.st6{fill:#F2F2F2;}
	.st7{fill:#4D4D4D;}
	.st8{fill:#ECECEC;}
	.st9{fill:#CCCCCC;}
	.st10{fill:#333333;}
	.st11{fill:#F9F9F9;}
	.st12{fill:#666666;}
</style>
<sodipodi:namedview  bordercolor="#eeeeee" borderopacity="1" id="namedview55" inkscape:current-layer="svg21" inkscape:cx="12.379836" inkscape:cy="14.644783" inkscape:deskcolor="#505050" inkscape:pagecheckerboard="0" inkscape:pageopacity="0" inkscape:showpageshadow="0" inkscape:window-height="985" inkscape:window-maximized="0" inkscape:window-width="1848" inkscape:window-x="25" inkscape:window-y="52" inkscape:zoom="35.541667" pagecolor="#505050" showgrid="true">
	<inkscape:grid  id="grid266" type="xygrid"></inkscape:grid>
</sodipodi:namedview>
<g id="g264" transform="matrix(1.2857143,0,0,1.2857143,-3.4285712,-3.4285712)">
	<rect id="rect3" x="2.7" y="2.7" class="st0" width="2.7" height="2.7"/>
	<rect id="rect3-3" x="5.3" y="2.7" class="st1" width="2.7" height="2.7"/>
	<rect id="rect3-6" x="8" y="2.7" width="2.7" height="2.7"/>
	<rect id="rect3-7" x="13.3" y="2.7" class="st1" width="2.7" height="2.7"/>
	<rect id="rect3-7-5" x="16" y="2.7" class="st2" width="2.7" height="2.7"/>
	<rect id="rect3-7-3" x="2.7" y="5.3" width="2.7" height="2.7"/>
	<rect id="rect3-7-56" x="5.3" y="5.3" class="st2" width="2.7" height="2.7"/>
	<rect id="rect3-7-2" x="8" y="5.3" width="2.7" height="2.7"/>
	<rect id="rect3-7-9" x="10.7" y="5.3" class="st1" width="2.7" height="2.7"/>
	<rect id="rect3-7-1" x="13.3" y="5.3" width="2.7" height="2.7"/>
	<rect id="rect3-7-27" x="16" y="5.3" class="st3" width="2.7" height="2.7"/>
	<rect id="rect3-7-0" x="18.7" y="5.3" class="st4" width="2.7" height="2.7"/>
	<rect id="rect3-7-93" x="2.7" y="8" class="st5" width="2.7" height="2.7"/>
	<rect id="rect3-7-6" x="5.3" y="8" width="2.7" height="2.7"/>
	<rect id="rect3-7-06" x="8" y="8" class="st6" width="2.7" height="2.7"/>
	<rect id="rect3-7-26" x="10.7" y="8" class="st7" width="2.7" height="2.7"/>
	<rect id="rect5" x="10.7" y="2.7" class="st8" width="2.7" height="2.7"/>
	<rect id="rect7" x="18.7" y="2.7" class="st3" width="2.7" height="2.7"/>
	<rect id="rect3-37" x="2.7" y="13.3" class="st9" width="2.7" height="2.7"/>
	<rect id="rect3-3-5" x="5.3" y="13.3" class="st2" width="2.7" height="2.7"/>
	<rect id="rect3-6-9" x="8" y="13.3" class="st10" width="2.7" height="2.7"/>
	<rect id="rect3-7-22" x="13.3" y="13.3" class="st10" width="2.7" height="2.7"/>
	<rect id="rect3-7-5-8" x="16" y="13.3" class="st4" width="2.7" height="2.7"/>
	<rect id="rect5-9" x="10.7" y="13.3" class="st5" width="2.7" height="2.7"/>
	<rect id="rect7-7" x="18.7" y="13.3" class="st5" width="2.7" height="2.7"/>
	<rect id="rect3-36" x="2.7" y="16" class="st7" width="2.7" height="2.7"/>
	<rect id="rect3-3-1" x="5.3" y="16" class="st9" width="2.7" height="2.7"/>
	<rect id="rect3-6-2" x="8" y="16" width="2.7" height="2.7"/>
	<rect id="rect3-7-931" x="13.3" y="16" class="st1" width="2.7" height="2.7"/>
	<rect id="rect3-7-5-9" x="16" y="16" class="st2" width="2.7" height="2.7"/>
	<rect id="rect5-4" x="10.7" y="16" class="st10" width="2.7" height="2.7"/>
	<rect id="rect7-78" x="18.7" y="16" class="st3" width="2.7" height="2.7"/>
	<rect id="rect3-36-6" x="2.7" y="18.7" width="2.7" height="2.7"/>
	<rect id="rect3-3-1-3" x="5.3" y="18.7" class="st1" width="2.7" height="2.7"/>
	<rect id="rect3-6-2-2" x="8" y="18.7" width="2.7" height="2.7"/>
	<rect id="rect3-7-931-0" x="13.3" y="18.7" class="st1" width="2.7" height="2.7"/>
	<rect id="rect3-7-5-9-61" x="16" y="18.7" class="st2" width="2.7" height="2.7"/>
	<rect id="rect5-4-5" x="10.7" y="18.7" class="st8" width="2.7" height="2.7"/>
	<rect id="rect7-78-5" x="18.7" y="18.7" class="st11" width="2.7" height="2.7"/>
	<rect id="rect3-36-4" x="2.7" y="10.7" class="st3" width="2.7" height="2.7"/>
	<rect id="rect3-3-1-5" x="5.3" y="10.7" class="st6" width="2.7" height="2.7"/>
	<rect id="rect3-6-2-0" x="8" y="10.7" class="st12" width="2.7" height="2.7"/>
	<rect id="rect3-7-931-3" x="13.3" y="10.7" class="st3" width="2.7" height="2.7"/>
	<rect id="rect3-7-5-9-6" x="16" y="10.7" class="st2" width="2.7" height="2.7"/>
	<rect id="rect5-4-1" x="10.7" y="10.7" width="2.7" height="2.7"/>
	<rect id="rect7-78-0" x="18.7" y="10.7" class="st8" width="2.7" height="2.7"/>
	<rect id="rect11" x="13.3" y="8" width="2.7" height="2.7"/>
	<rect id="rect3-7-7" x="16" y="8" class="st1" width="2.7" height="2.7"/>
	<rect id="rect3-7-92" x="18.7" y="8" width="2.7" height="2.7"/>
</g>
</svg>
