<?xml version="1.0" encoding="UTF-8" standalone="no"?>
<svg
   width="24"
   height="24"
   viewBox="0 0 24 24"
   aria-labelledby="appsAltIconTitle"
   version="1.1"
   id="svg21"
   sodipodi:docname="revcor.svg"
   inkscape:version="1.2.1 (9c6d41e410, 2022-07-14)"
   xmlns:inkscape="http://www.inkscape.org/namespaces/inkscape"
   xmlns:sodipodi="http://sodipodi.sourceforge.net/DTD/sodipodi-0.dtd"
   xmlns="http://www.w3.org/2000/svg"
   xmlns:svg="http://www.w3.org/2000/svg"
   xmlns:rdf="http://www.w3.org/1999/02/22-rdf-syntax-ns#"
   xmlns:cc="http://creativecommons.org/ns#"
   xmlns:dc="http://purl.org/dc/elements/1.1/">
  <sodipodi:namedview
     id="namedview55"
     pagecolor="#505050"
     bordercolor="#eeeeee"
     borderopacity="1"
     inkscape:showpageshadow="0"
     inkscape:pageopacity="0"
     inkscape:pagecheckerboard="0"
     inkscape:deskcolor="#505050"
     showgrid="true"
     inkscape:zoom="35.541667"
     inkscape:cx="12.379836"
     inkscape:cy="14.644783"
     inkscape:window-width="1848"
     inkscape:window-height="985"
     inkscape:window-x="25"
     inkscape:window-y="52"
     inkscape:window-maximized="0"
     inkscape:current-layer="svg21">
    <inkscape:grid
       type="xygrid"
       id="grid266" />
  </sodipodi:namedview>
  <defs
     id="defs25" />
  <title
     id="appsAltIconTitle">Apps drawer</title>
  <g
     id="g264"
     transform="matrix(1.2857143,0,0,1.2857143,-3.4285712,-3.4285712)">
    <rect
       x="5"
       y="5"
       width="2"
       height="2"
       id="rect3"
       style="fill:#ffffff" />
    <rect
       x="7.0000005"
       y="5"
       width="2"
       height="2"
       id="rect3-3"
       style="fill:#808080" />
    <rect
       x="9"
       y="5"
       width="2"
       height="2"
       id="rect3-6"
       style="fill:#000000" />
    <rect
       x="13"
       y="5"
       width="2"
       height="2"
       id="rect3-7"
       style="fill:#808080" />
    <rect
       x="15"
       y="5"
       width="2"
       height="2"
       id="rect3-7-5"
       style="fill:#1a1a1a" />
    <rect
       x="5"
       y="7"
       width="2"
       height="2"
       id="rect3-7-3" />
    <rect
       x="7"
       y="7"
       width="2"
       height="2"
       id="rect3-7-56"
       style="fill:#1a1a1a" />
    <rect
       x="9"
       y="7"
       width="2"
       height="2"
       id="rect3-7-2" />
    <rect
       x="11"
       y="7"
       width="2"
       height="2"
       id="rect3-7-9"
       style="fill:#808080" />
    <rect
       x="13"
       y="7"
       width="2"
       height="2"
       id="rect3-7-1" />
    <rect
       x="15"
       y="7"
       width="2"
       height="2"
       id="rect3-7-27"
       style="fill:#999999" />
    <rect
       x="17"
       y="7"
       width="2"
       height="2"
       id="rect3-7-0"
       style="fill:#e6e6e6" />
    <rect
       x="5"
       y="9"
       width="2"
       height="2"
       id="rect3-7-93"
       style="fill:#b3b3b3" />
    <rect
       x="7"
       y="9"
       width="2"
       height="2"
       id="rect3-7-6" />
    <rect
       x="9"
       y="9"
       width="2"
       height="2"
       id="rect3-7-06"
       style="fill:#f2f2f2" />
    <rect
       x="11"
       y="9"
       width="2"
       height="2"
       id="rect3-7-26"
       style="fill:#4d4d4d" />
    <rect
       x="11"
       y="5"
       width="2"
       height="2"
       id="rect5"
       style="fill:#ececec" />
    <rect
       x="17"
       y="5"
       width="2"
       height="2"
       id="rect7"
       style="fill:#999999" />
    <rect
       x="5"
       y="13"
       width="2"
       height="2"
       id="rect3-37"
       style="fill:#cccccc" />
    <rect
       x="7"
       y="13"
       width="2"
       height="2"
       id="rect3-3-5"
       style="fill:#1a1a1a" />
    <rect
       x="9"
       y="13"
       width="2"
       height="2"
       id="rect3-6-9"
       style="fill:#333333" />
    <rect
       x="13"
       y="13"
       width="2"
       height="2"
       id="rect3-7-22"
       style="fill:#333333" />
    <rect
       x="15"
       y="13"
       width="2"
       height="2"
       id="rect3-7-5-8"
       style="fill:#e6e6e6" />
    <rect
       x="11"
       y="13"
       width="2"
       height="2"
       id="rect5-9"
       style="fill:#b3b3b3" />
    <rect
       x="17"
       y="13"
       width="2"
       height="2"
       id="rect7-7"
       style="fill:#b3b3b3" />
    <rect
       x="5"
       y="15"
       width="2"
       height="2"
       id="rect3-36"
       style="fill:#4d4d4d" />
    <rect
       x="7"
       y="15"
       width="2"
       height="2"
       id="rect3-3-1"
       style="fill:#cccccc" />
    <rect
       x="9"
       y="15"
       width="2"
       height="2"
       id="rect3-6-2"
       style="fill:#000000" />
    <rect
       x="13"
       y="15"
       width="2"
       height="2"
       id="rect3-7-931"
       style="fill:#808080" />
    <rect
       x="15"
       y="15"
       width="2"
       height="2"
       id="rect3-7-5-9"
       style="fill:#1a1a1a" />
    <rect
       x="11"
       y="15"
       width="2"
       height="2"
       id="rect5-4"
       style="fill:#333333" />
    <rect
       x="17"
       y="15"
       width="2"
       height="2"
       id="rect7-78"
       style="fill:#999999" />
    <rect
       x="5"
       y="17"
       width="2"
       height="2"
       id="rect3-36-6"
       style="fill:#000000" />
    <rect
       x="7"
       y="17"
       width="2"
       height="2"
       id="rect3-3-1-3"
       style="fill:#808080" />
    <rect
       x="9"
       y="17"
       width="2"
       height="2"
       id="rect3-6-2-2"
       style="fill:#000000" />
    <rect
       x="13"
       y="17"
       width="2"
       height="2"
       id="rect3-7-931-0"
       style="fill:#808080" />
    <rect
       x="15"
       y="17"
       width="2"
       height="2"
       id="rect3-7-5-9-61"
       style="fill:#1a1a1a" />
    <rect
       x="11"
       y="17"
       width="2"
       height="2"
       id="rect5-4-5"
       style="fill:#ececec" />
    <rect
       x="17"
       y="17"
       width="2"
       height="2"
       id="rect7-78-5"
       style="fill:#f9f9f9" />
    <rect
       x="5"
       y="11"
       width="2"
       height="2"
       id="rect3-36-4"
       style="fill:#999999" />
    <rect
       x="7"
       y="11"
       width="2"
       height="2"
       id="rect3-3-1-5"
       style="fill:#f2f2f2" />
    <rect
       x="9"
       y="11"
       width="2"
       height="2"
       id="rect3-6-2-0"
       style="fill:#666666" />
    <rect
       x="13"
       y="11"
       width="2"
       height="2"
       id="rect3-7-931-3"
       style="fill:#999999" />
    <rect
       x="15"
       y="11"
       width="2"
       height="2"
       id="rect3-7-5-9-6"
       style="fill:#1a1a1a" />
    <rect
       x="11"
       y="11"
       width="2"
       height="2"
       id="rect5-4-1"
       style="fill:#000000" />
    <rect
       x="17"
       y="11"
       width="2"
       height="2"
       id="rect7-78-0"
       style="fill:#ececec" />
    <rect
       x="13"
       y="9"
       width="2"
       height="2"
       id="rect11" />
    <rect
       x="15"
       y="9"
       width="2"
       height="2"
       id="rect3-7-7"
       style="fill:#808080" />
    <rect
       x="17"
       y="9"
       width="2"
       height="2"
       id="rect3-7-92" />
  </g>
  <metadata
     id="metadata678">
    <rdf:RDF>
      <cc:Work
         rdf:about="">
        <dc:title>Apps drawer</dc:title>
      </cc:Work>
    </rdf:RDF>
  </metadata>
</svg>
