<?xml version="1.0" encoding="UTF-8" standalone="no"?>
<!--Generator: Apple Native CoreSVG 175.5-->

<svg
   version="1.1"
   width="68.11528"
   height="90.722603"
   id="svg130"
   sodipodi:docname="run-all.svg"
   inkscape:version="1.2.2 (b0a8486541, 2022-12-01)"
   xmlns:inkscape="http://www.inkscape.org/namespaces/inkscape"
   xmlns:sodipodi="http://sodipodi.sourceforge.net/DTD/sodipodi-0.dtd"
   xmlns="http://www.w3.org/2000/svg"
   xmlns:svg="http://www.w3.org/2000/svg">
  <defs
     id="defs134" />
  <sodipodi:namedview
     id="namedview132"
     pagecolor="#505050"
     bordercolor="#eeeeee"
     borderopacity="1"
     inkscape:showpageshadow="0"
     inkscape:pageopacity="0"
     inkscape:pagecheckerboard="0"
     inkscape:deskcolor="#505050"
     showgrid="false"
     inkscape:zoom="4.4020611"
     inkscape:cx="50.544505"
     inkscape:cy="56.791579"
     inkscape:window-width="1440"
     inkscape:window-height="810"
     inkscape:window-x="45"
     inkscape:window-y="72"
     inkscape:window-maximized="0"
     inkscape:current-layer="Regular-S" />
  <!--glyph: "uni1017FB.medium", point size: 100.0, font version: "18.0d12e2", template writer version: "101"-->
  <style
     id="style2">.monochrome-0 {fill:#000000}
.monochrome-1 {fill:#FFFFFF;opacity:0.0;-sfsymbols-clear-behind:true}

.multicolor-0:tintColor {fill:#007AFF}
.multicolor-1:white {fill:#FFFFFF}

.hierarchical-0:tertiary {fill:#8E8E8E}
.hierarchical-1:primary {fill:#212121}

.SFSymbolsPreview007AFF {fill:#007AFF;opacity:1.0}
.SFSymbolsPreviewFFFFFF {fill:#FFFFFF;opacity:1.0}
</style>
  <g
     id="Regular-S"
     transform="translate(-9.76562,80.5664)">
    <path
       class="monochrome-0 multicolor-0:tintColor hierarchical-0:tertiary SFSymbolsPreview007AFF"
       d="m 22.2168,10.1562 h 44.6289 c 6.9336,0 11.0352,-4.10151 11.0352,-12.30464 V -45.7031 c 0,-8.2031 -4.1504,-12.2559 -12.4512,-12.2559 H 22.2168 c -8.3008,0 -12.45118,4.0528 -12.45118,12.2559 v 43.55466 c 0,8.20313 4.15038,12.30464 12.45118,12.30464 z M 18.5059,-63.916 h 50.6347 c -0.6836,-4.0039 -2.539,-6.1035 -6.9336,-6.1035 H 25.4395 c -4.3946,0 -6.2012,2.0996 -6.9336,6.1035 z M 25.3906,-75 h 36.8653 c -0.2442,-3.7109 -2.3438,-5.5664 -6.3965,-5.5664 H 31.7871 c -4.0527,0 -6.1035,1.8555 -6.3965,5.5664 z"
       id="path119"
       style="fill:#4d4d4d" />
    <path
       class="monochrome-1 multicolor-1:white hierarchical-1:primary SFSymbolsPreviewFFFFFF"
       d="m 27.1973,1.07422 c -1.3672,0 -2.2461,-1.07422 -2.2461,-2.19727 0,-0.63476 0.2441,-1.17187 0.83,-1.80664 l 7.3243,-7.27541 5.9082,-20.8984 c 0.1953,-0.7324 -0.1465,-1.1231 -0.9278,-1.0742 l -3.2226,0.1465 -0.8789,6.25 c -0.1953,1.4648 -1.1719,2.1972 -2.3438,2.0996 -1.5136,-0.0977 -2.2461,-1.1719 -2.0508,-2.5879 l 1.0743,-8.0078 c 0.1953,-1.4161 1.123,-2.1973 2.3437,-2.295 l 8.8379,-0.6836 c 3.7109,-0.2929 6.25,0.8789 8.2031,3.6133 l 3.9063,5.5176 5.6152,-2.4902 c 1.3672,-0.5371 2.3926,-0.1465 2.9785,0.9277 0.5371,1.1719 0.0489,2.3437 -1.2207,2.8809 l -7.4219,3.3203 c -1.0253,0.3418 -2.0996,0.1465 -2.6855,-0.7813 l -2.0508,-2.9297 c -0.4883,-0.6836 -1.1719,-0.5371 -1.3672,0.1465 l -1.4648,5.3711 7.8613,5.127 c 0.9278,0.6836 1.3184,1.2695 1.3184,1.9531 0,0.7324 -0.2442,1.2695 -0.9278,1.8066 l -7.4707,6.49417 c -0.7324,0.58594 -1.416,0.92774 -2.1484,0.92774 -1.2695,0 -2.1973,-1.12305 -2.1973,-2.29493 0,-0.68359 0.3907,-1.36718 0.9766,-1.85546 l 5.4199,-4.63872 -5.8105,-3.4179 c -1.2207,-0.7324 -2.2461,-0.3907 -2.6856,0.7324 l -3.125,8.20312 c -0.3906,0.92774 -0.4883,1.12305 -1.1718,1.70899 L 29.3457,0 C 28.6621,0.683594 27.9785,1.07422 27.1973,1.07422 Z M 48.877,-38.1348 c -2.7832,0 -4.9317,-2.2461 -4.9317,-4.834 0,-2.832 2.1485,-5.0292 4.9317,-5.0292 2.7343,0 4.9804,2.1972 4.9804,5.0292 0,2.5879 -2.2461,4.834 -4.9804,4.834 z"
       id="path121"
       style="-sfsymbols-clear-behind:true" />
  </g>
</svg>
