<?xml version="1.0" encoding="utf-8"?>
<!-- Generator: Adobe Illustrator 27.0.0, SVG Export Plug-In . SVG Version: 6.00 Build 0)  -->
<svg version="1.1" id="Layer_1" xmlns="http://www.w3.org/2000/svg" xmlns:xlink="http://www.w3.org/1999/xlink" x="0px" y="0px"
	 viewBox="0 0 78.8 78.8" style="enable-background:new 0 0 78.8 78.8;" xml:space="preserve">
<style type="text/css">
	.st0{fill-opacity:0;}
	.st1{fill:#333333;fill-opacity:0.85;}
</style>
<g>
	<rect x="-184" y="-61.36" class="st0" width="164.26" height="209.47"/>
</g>
<g>
	<rect x="8.55" y="0.06" class="st0" width="61.69" height="78.67"/>
	<path class="st1" d="M42.19,41.11c0-1.5-1.28-2.71-2.79-2.71c-1.5,0-2.79,1.21-2.79,2.71v13.31l0.22,5.98l-3.12-3.23l-3.3-3.37
		c-0.51-0.55-1.28-0.84-1.98-0.84c-1.5,0-2.57,1.06-2.57,2.53c0,0.84,0.33,1.47,0.92,1.98l10.56,9.72c0.77,0.7,1.36,0.95,2.05,0.95
		s1.28-0.26,2.05-0.95l10.56-9.72c0.59-0.51,0.92-1.14,0.92-1.98c0-1.47-1.1-2.53-2.57-2.53c-0.73,0-1.47,0.29-1.98,0.84l-3.3,3.37
		l-3.12,3.23l0.22-5.98V41.11z M19.92,78.7h38.95c7.59,0,11.37-3.85,11.37-11.48v-33.3c0-4.73-0.55-6.79-3.48-9.79L46.55,3.55
		c-2.79-2.86-5.1-3.48-9.21-3.48H19.92c-7.56,0-11.37,3.89-11.37,11.52v55.64C8.55,74.89,12.33,78.7,19.92,78.7z M20.18,72.79
		c-3.78,0-5.72-2.02-5.72-5.68V11.69c0-3.63,1.94-5.72,5.76-5.72h16.32v21.31c0,4.62,2.31,6.9,6.9,6.9h20.91v32.94
		c0,3.67-1.94,5.68-5.76,5.68H20.18z M44.09,28.64c-1.47,0-2.02-0.59-2.02-2.05V7.11L63.2,28.64H44.09z"/>
</g>
</svg>
