<?xml version="1.0" encoding="utf-8"?>
<!-- Generator: Adobe Illustrator 27.0.0, SVG Export Plug-In . SVG Version: 6.00 Build 0)  -->
<svg version="1.1" id="Layer_1" xmlns="http://www.w3.org/2000/svg" xmlns:xlink="http://www.w3.org/1999/xlink" x="0px" y="0px"
	 viewBox="0 0 78.8 78.8" style="enable-background:new 0 0 78.8 78.8;" xml:space="preserve">
<style type="text/css">
	.st0{fill:#231F20;fill-opacity:0.85;}
</style>
<path class="st0" d="M39.4,78.62c21.46,0,39.22-17.8,39.22-39.22c0-21.46-17.8-39.22-39.26-39.22C17.94,0.18,0.18,17.94,0.18,39.4
	C0.18,60.82,17.98,78.62,39.4,78.62z M39.4,72.09c-18.15,0-32.65-14.54-32.65-32.69c0-18.15,14.46-32.69,32.61-32.69
	c18.15,0,32.72,14.54,32.72,32.69C72.09,57.55,57.55,72.09,39.4,72.09z M39.4,58.63c1.69,0,2.88-1.19,2.88-2.88V36.52l-0.31-8.15
	l3.92,4.65l4.54,4.61c0.5,0.54,1.19,0.85,2.04,0.85c1.58,0,2.81-1.23,2.81-2.77c0-0.81-0.31-1.5-0.81-2L41.67,20.91
	c-0.73-0.73-1.42-1.08-2.27-1.08c-0.81,0-1.46,0.31-2.23,1.08L24.33,33.71c-0.5,0.5-0.73,1.19-0.73,2c0,1.54,1.19,2.77,2.77,2.77
	c0.81,0,1.5-0.35,2.04-0.85l4.58-4.61l3.85-4.61l-0.31,8.11v19.23C36.52,57.44,37.75,58.63,39.4,58.63z"/>
</svg>
